# Blender v2.79 (sub 0) OBJ File: 'conusUV.blend'
# www.blender.org
o Cone_Cone.001
v 0.000000 -1.000000 1.000000
v 0.707107 -0.707107 1.000000
v 1.000000 0.000000 1.000000
v 0.707107 0.707107 1.000000
v -0.000000 1.000000 1.000000
v -0.707107 0.707107 1.000000
v -1.000000 -0.000000 1.000000
v -0.707107 -0.707107 1.000000
v 0.000000 0.000000 -1.000000
vt 0.239192 0.313825
vt 0.499052 0.000071
vt 0.321705 0.355439
vt 0.404566 0.396355
vt 0.506786 0.618690
vt 0.000071 0.999929
vt 0.312142 0.637904
vt 0.199976 0.599360
vt 0.101739 0.532902
vt 0.000071 0.365813
vn 0.3474 -0.8387 -0.4194
vn 0.8387 -0.3474 -0.4194
vn 0.8387 0.3474 -0.4194
vn 0.3474 0.8387 -0.4194
vn -0.3474 0.8387 -0.4194
vn -0.8387 0.3474 -0.4194
vn -0.8387 -0.3474 -0.4194
vn -0.3474 -0.8387 -0.4194
vn -0.0000 0.0000 1.0000
s off
f 1/1/1 9/2/1 2/3/1
f 2/3/2 9/2/2 3/4/2
f 3/4/3 9/2/3 4/5/3
f 4/5/4 9/6/4 5/7/4
f 5/7/5 9/6/5 6/8/5
f 6/8/6 9/6/6 7/9/6
f 7/9/7 9/6/7 8/10/7
f 8/10/8 9/2/8 1/1/8
f 8/10/9 2/3/9 4/5/9
f 8/10/9 1/1/9 2/3/9
f 2/3/9 3/4/9 4/5/9
f 4/5/9 5/7/9 6/8/9
f 6/8/9 7/9/9 4/5/9
f 7/9/9 8/10/9 4/5/9
