# Blender v2.79 (sub 0) OBJ File: 'asteroid3.blend'
# www.blender.org
o Cube
v -0.420660 -1.000000 -0.346228
v 0.635222 -1.000000 0.418291
v -0.372937 -1.000000 0.323378
v -0.057740 1.000000 -0.220231
v 0.460265 1.000000 -0.285930
v -0.015532 1.000000 0.308863
v 0.412314 1.000000 0.341904
v -1.000000 0.200503 -0.450824
v -1.000000 -0.154845 -0.502931
v -0.502110 0.095359 -1.000000
v -0.858761 -0.384560 -0.688029
v -0.446133 0.504605 -1.000000
v -0.582335 0.588923 -0.841622
v -0.683786 -0.483024 0.838298
v -0.502388 -0.345631 1.000000
v -0.606401 0.460243 0.720654
v -0.403095 0.149141 1.000000
v -1.000000 0.143580 0.373704
v -1.000000 -0.057414 0.416106
v 1.000000 -0.300853 0.785299
v 1.000000 0.125096 0.738659
v 0.702396 -0.497978 0.953059
v 0.594741 -0.443756 1.000000
v 0.754054 0.464242 0.822327
v 0.445333 0.226455 1.000000
v 0.633475 0.794366 -0.652020
v 0.387550 0.567789 -1.000000
v 0.391938 -0.001325 -1.000000
v 1.000000 0.220455 -0.143268
v 1.000000 -0.849180 0.099020
v 0.488693 -1.000000 -0.405398
v 0.870006 -1.000000 0.091300
v 0.633012 -0.579905 -0.667557
v 1.000000 -0.614626 -0.152314
vt 0.236262 0.686854
vt 0.136730 0.523509
vt 0.296815 0.566223
vt 0.626585 0.324788
vt 0.702847 0.188510
vt 0.702847 0.342079
vt 0.898278 0.811350
vt 0.971678 0.679560
vt 1.000000 0.722505
vt 0.723057 0.783570
vt 0.886164 0.907714
vt 0.722353 0.918032
vt 0.186055 0.958194
vt 0.109155 0.643087
vt 0.169416 0.994493
vt 0.018610 0.870703
vt 0.371347 0.859662
vt 0.399433 0.780407
vt 0.561399 0.801959
vt 0.486687 0.083289
vt 0.638868 0.195567
vt 0.382823 0.658989
vt 0.593222 0.638368
vt 0.616153 0.626056
vt 0.679542 0.677472
vt 0.480303 0.009605
vt 0.358526 0.146988
vt 0.402278 0.000000
vt 0.355907 0.626957
vt 0.440585 0.508255
vt 0.029392 0.434475
vt 0.000000 0.261909
vt 0.188300 0.328025
vt 0.047436 0.200035
vt 0.081173 0.103793
vt 0.496649 0.505074
vt 0.488980 0.467635
vt 0.355907 0.221927
vt 0.355907 0.385522
vt 0.679542 0.623831
vt 0.710769 0.508255
vt 0.889653 0.509413
vt 0.212091 0.000000
vt 0.267779 0.039939
vt 0.251706 0.071056
vt 0.352368 0.100606
vt 0.271557 0.151614
vt 0.245708 0.512162
vt 0.999369 0.803041
vt 0.913720 0.918032
vt 0.296815 0.866007
vt 0.000000 0.793954
vt 0.012928 0.944330
vt 0.627156 0.863495
vt 0.580363 1.000000
vt 0.499956 0.999117
vt 0.381661 0.363767
vt 0.383744 0.161157
vt 0.679542 0.782359
vt 0.355907 0.036490
vt 0.629303 0.510109
vt 0.218783 0.512162
vt 0.136315 0.511159
vt 0.698147 0.428078
vt 0.628664 0.508255
vt 0.300217 0.506500
vt 0.071893 0.041399
vn 0.0000 -1.0000 0.0000
vn 0.0000 1.0000 -0.0000
vn -0.7276 0.0995 -0.6787
vn 0.0000 0.0000 -1.0000
vn -0.8285 -0.5569 0.0590
vn -1.0000 0.0000 -0.0000
vn -0.0588 0.6454 0.7616
vn -0.6535 0.7551 0.0521
vn -0.0000 -0.0000 1.0000
vn 0.4388 0.0978 0.8933
vn -0.7170 0.1439 0.6821
vn -0.0647 -0.7235 0.6873
vn 0.8152 0.5758 0.0623
vn 1.0000 0.0000 0.0000
vn -0.0649 0.8566 -0.5119
vn 0.8147 0.0063 -0.5799
vn -0.0557 -0.5148 -0.8555
vn 0.6561 -0.5896 0.4711
vn 0.6643 -0.5465 -0.5100
s off
f 3/1/1 31/2/1 2/3/1
f 4/4/2 7/5/2 5/6/2
f 10/7/3 11/8/3 9/9/3
f 28/10/4 12/11/4 27/12/4
f 19/13/5 1/14/5 3/1/5
f 18/15/6 9/16/6 19/13/6
f 16/17/7 17/18/7 25/19/7
f 16/20/8 6/21/8 4/4/8
f 25/19/9 15/22/9 23/23/9
f 23/23/10 22/24/10 20/25/10
f 17/26/11 19/27/11 15/28/11
f 15/22/12 14/29/12 3/30/12
f 7/31/13 24/32/13 29/33/13
f 29/33/14 21/34/14 20/35/14
f 12/36/15 13/37/15 4/4/15
f 33/38/16 28/39/16 29/33/16
f 33/40/17 31/41/17 1/42/17
f 2/43/18 32/44/18 30/45/18
f 31/46/19 34/47/19 32/44/19
f 1/14/1 31/2/1 3/1/1
f 31/2/1 32/48/1 2/3/1
f 4/4/2 6/21/2 7/5/2
f 9/9/3 8/49/3 10/7/3
f 8/49/3 13/50/3 10/7/3
f 13/50/3 12/11/3 10/7/3
f 28/10/4 10/7/4 12/11/4
f 3/1/5 14/51/5 19/13/5
f 19/13/5 9/16/5 1/14/5
f 9/16/5 11/52/5 1/14/5
f 18/15/6 8/53/6 9/16/6
f 25/19/7 24/54/7 7/55/7
f 7/55/7 6/56/7 25/19/7
f 6/56/7 16/17/7 25/19/7
f 4/4/8 13/37/8 8/57/8
f 8/57/8 18/58/8 4/4/8
f 18/58/8 16/20/8 4/4/8
f 25/19/9 17/18/9 15/22/9
f 20/25/10 21/59/10 23/23/10
f 21/59/10 24/54/10 25/19/10
f 25/19/10 23/23/10 21/59/10
f 17/26/11 16/20/11 19/27/11
f 16/20/11 18/58/11 19/27/11
f 19/27/11 14/60/11 15/28/11
f 3/30/12 2/61/12 23/23/12
f 2/61/12 22/24/12 23/23/12
f 23/23/12 15/22/12 3/30/12
f 21/34/13 29/33/13 24/32/13
f 29/33/13 26/62/13 5/63/13
f 7/31/13 29/33/13 5/63/13
f 30/45/14 34/47/14 20/35/14
f 34/47/14 29/33/14 20/35/14
f 4/4/15 5/6/15 26/64/15
f 26/64/15 27/65/15 4/4/15
f 27/65/15 12/36/15 4/4/15
f 27/66/16 26/62/16 28/39/16
f 26/62/16 29/33/16 28/39/16
f 29/33/16 34/47/16 33/38/16
f 1/42/17 11/8/17 10/7/17
f 10/7/17 28/10/17 1/42/17
f 28/10/17 33/40/17 1/42/17
f 30/45/18 20/35/18 2/43/18
f 20/35/18 22/67/18 2/43/18
f 33/38/19 34/47/19 31/46/19
f 34/47/19 30/45/19 32/44/19
