# Blender v2.79 (sub 0) OBJ File: ''
# www.blender.org
o Cube
v -0.576755 -1.000000 0.601890
v 0.651499 -1.000000 0.572061
v 0.522293 1.000000 0.593409
v -0.521223 1.000000 0.780716
v -0.614003 0.824863 1.000000
v -0.683511 -1.000000 -0.534443
v 0.723711 -1.000000 -0.452325
v 0.616558 1.000000 -0.623622
v -1.000000 -0.611054 -0.695234
v -1.000000 0.352940 -0.620570
v -0.614049 1.000000 -0.728750
v -0.289470 -0.783382 -1.000000
v -0.797256 -0.885360 -0.799633
v -0.504117 1.000000 -0.773837
v -0.053141 0.468092 -1.000000
v 1.000000 0.026809 -0.633112
v 1.000000 0.620014 -0.568047
v 0.878974 0.750376 -0.722954
v 0.718010 0.276262 -1.000000
v 1.000000 0.331122 0.474893
v 1.000000 0.542281 0.456056
v 0.569932 -0.097987 1.000000
v 0.766538 -0.485880 0.812051
v 0.510958 0.650333 1.000000
v 0.696297 0.815661 0.775452
v -0.628228 0.801418 1.000000
v -0.965825 -0.466181 0.863425
v -1.000000 -0.431183 0.788306
v -1.000000 0.235506 0.538099
v -0.829225 -0.169943 1.000000
v 0.794378 -0.829284 -0.833226
v 0.351056 -0.766809 -1.000000
v 0.784696 -0.573745 -1.000000
v 0.844018 -0.661553 -0.926693
vt 0.167866 0.515699
vt 0.099488 0.465893
vt 0.257817 0.376548
vt 0.882583 0.386968
vt 0.697617 0.042759
vt 0.908485 0.026117
vt 1.000000 0.132924
vt 0.995766 0.297613
vt 0.954370 0.493569
vt 0.957604 0.893415
vt 0.760291 0.845238
vt 0.352027 0.187261
vt 0.341948 0.051879
vt 0.397260 0.000000
vt 0.575293 0.779467
vt 0.352383 0.570673
vt 0.626720 0.612867
vt 0.669964 0.688453
vt 0.545516 0.454420
vt 0.693772 0.426308
vt 0.643039 0.493569
vt 0.762435 0.949817
vt 0.727390 0.892061
vt 0.669964 0.809909
vt 0.669964 0.546500
vt 0.742467 0.532206
vt 0.199240 0.091949
vt 0.000329 0.141634
vt 0.310612 0.108254
vt 0.341948 0.515381
vt 0.395964 0.493569
vt 0.016362 0.734014
vt 0.000000 0.647673
vt 0.089393 0.515699
vt 0.669651 0.943317
vt 0.669964 0.950065
vt 0.631095 1.000000
vt 0.244611 0.989256
vt 0.029568 0.989256
vt 0.027546 0.982889
vt 0.066025 0.018375
vt 0.080998 0.000003
vt 0.353116 0.351443
vt 0.583500 0.258584
vt 1.000000 0.410052
vt 0.959121 0.409631
vt 0.297405 0.371556
vt 0.341948 0.456195
vt 0.306857 0.515699
vt 0.693772 0.358681
vt 0.962849 0.000000
vt 0.975156 0.505166
vt 0.578834 0.006657
vt 0.693772 0.113489
vt 0.691796 0.142646
vt 0.359123 0.810792
vt 0.642106 0.606183
vt 0.975148 0.949817
vt 0.692849 0.506657
vt 0.033512 0.042966
vt 0.000000 0.405603
vt 0.610767 0.498337
vt 0.319250 0.561356
vt 0.324808 0.706665
vt 0.275966 0.805762
vt 0.347434 0.996780
vt 0.238884 0.000000
vt 0.332001 0.069431
vt 0.387595 0.464164
vt 0.982569 0.424145
vn 0.7481 0.0590 0.6609
vn 0.0000 -1.0000 0.0000
vn 0.0236 -0.9139 -0.4052
vn 0.0000 1.0000 0.0000
vn -0.3785 0.0715 -0.9228
vn -1.0000 0.0000 -0.0000
vn -0.8617 0.1783 0.4751
vn 0.1172 0.4711 -0.8743
vn 0.1166 0.7514 0.6495
vn 0.6989 0.7132 0.0541
vn 0.9664 -0.2480 0.0681
vn 1.0000 0.0000 0.0000
vn -0.7883 -0.6108 0.0741
vn 0.0220 -0.4269 0.9040
vn -0.8538 0.5180 0.0525
vn -0.0000 0.0000 1.0000
vn 0.8117 0.0637 -0.5806
vn 0.0000 0.0000 -1.0000
vn 0.2338 -0.5252 -0.8183
s off
f 22/1/1 23/2/1 20/3/1
f 7/4/2 1/5/2 6/6/2
f 7/4/3 12/7/3 32/8/3
f 14/9/4 4/10/4 3/11/4
f 12/12/5 13/13/5 9/14/5
f 29/15/6 9/16/6 28/17/6
f 28/17/7 30/18/7 29/15/7
f 19/19/8 8/20/8 18/21/8
f 24/22/9 25/23/9 3/11/9
f 21/24/10 17/25/10 8/26/10
f 16/27/11 23/2/11 7/28/11
f 17/29/12 20/3/12 16/27/12
f 9/16/13 13/30/13 6/31/13
f 30/32/14 27/33/14 1/34/14
f 26/35/15 5/36/15 4/37/15
f 24/38/16 5/39/16 26/40/16
f 16/27/17 34/41/17 33/42/17
f 32/43/18 12/12/18 15/44/18
f 33/45/19 31/46/19 32/8/19
f 20/3/1 21/47/1 25/48/1
f 25/48/1 24/49/1 20/3/1
f 24/49/1 22/1/1 20/3/1
f 7/4/2 2/50/2 1/5/2
f 32/8/3 31/46/3 7/4/3
f 7/4/3 6/6/3 12/7/3
f 6/6/3 13/51/3 12/7/3
f 3/11/4 8/26/4 14/9/4
f 14/9/4 11/52/4 4/10/4
f 9/14/5 10/53/5 12/12/5
f 10/53/5 11/54/5 14/55/5
f 15/44/5 10/53/5 14/55/5
f 15/44/5 12/12/5 10/53/5
f 29/15/6 10/56/6 9/16/6
f 27/57/7 30/18/7 28/17/7
f 30/18/7 26/35/7 29/15/7
f 19/19/8 15/44/8 8/20/8
f 15/44/8 14/55/8 8/20/8
f 3/11/9 4/10/9 24/22/9
f 4/10/9 5/58/9 24/22/9
f 17/25/10 18/59/10 8/26/10
f 8/26/10 3/11/10 21/24/10
f 3/11/10 25/23/10 21/24/10
f 31/60/11 34/41/11 7/28/11
f 34/41/11 16/27/11 7/28/11
f 16/27/11 20/3/11 23/2/11
f 23/2/11 2/61/11 7/28/11
f 17/29/12 21/47/12 20/3/12
f 6/31/13 1/62/13 28/17/13
f 1/62/13 27/57/13 28/17/13
f 28/17/13 9/16/13 6/31/13
f 1/34/14 2/63/14 23/64/14
f 23/64/14 22/65/14 1/34/14
f 22/65/14 30/32/14 1/34/14
f 4/37/15 11/66/15 29/15/15
f 11/66/15 10/56/15 29/15/15
f 29/15/15 26/35/15 4/37/15
f 30/32/16 22/65/16 26/40/16
f 22/65/16 24/38/16 26/40/16
f 33/42/17 19/67/17 16/27/17
f 19/67/17 18/68/17 17/29/17
f 16/27/17 19/67/17 17/29/17
f 15/44/18 19/19/18 32/43/18
f 19/19/18 33/69/18 32/43/18
f 33/45/19 34/70/19 31/46/19
