# Blender v2.79 (sub 0) OBJ File: 'asteroid1.blend'
# www.blender.org
o Cube_Cube.002
v 0.241818 0.526393 1.000000
v -0.238129 0.808283 -1.000000
v 1.000000 0.328834 0.065466
v 0.806758 0.594440 0.061585
v 0.014906 0.787718 -1.000000
v -0.143910 0.557743 1.000000
v -1.000000 -0.077480 -0.890416
v -0.782684 -0.014056 -1.000000
v 1.000000 -0.322414 0.797853
v 0.636864 -0.009531 1.000000
v -0.683527 -0.072348 1.000000
v -1.000000 -0.289304 0.876383
v -0.422130 -1.000000 0.424412
v -0.712552 0.810707 -0.702450
v -0.647256 0.667255 0.435098
v -1.000000 0.202200 0.478174
v -1.000000 0.434012 -0.678698
v 1.000000 -0.229960 -0.587339
v 0.567947 0.018075 -1.000000
v 0.490587 -0.362361 -1.000000
v -0.784489 -1.000000 -0.120233
v -1.000000 -0.825608 -0.223188
v -0.793503 -1.000000 0.322416
v -0.969454 -0.862292 0.524669
v -1.000000 -0.838069 0.540390
v 0.932332 -1.000000 0.384959
v 1.000000 -0.965089 0.404362
v 0.839543 -0.896647 -0.608626
v 1.000000 -0.826216 -0.483640
v 0.691043 -1.000000 -0.480219
v 0.241818 0.526393 1.000000
v -0.238129 0.808283 -1.000000
v 1.000000 0.328834 0.065466
v 0.806758 0.594440 0.061585
v -0.143910 0.557743 1.000000
v -0.683527 -0.072348 1.000000
v -1.000000 -0.289304 0.876383
v -0.422130 -1.000000 0.424412
v -0.712552 0.810707 -0.702450
v -0.647256 0.667255 0.435098
v -1.000000 0.202200 0.478174
v 1.000000 -0.229960 -0.587339
v 0.567947 0.018075 -1.000000
v -0.793503 -1.000000 0.322416
v -0.969454 -0.862292 0.524669
v -1.000000 -0.838069 0.540390
v -0.485765 0.440046 -0.684479
vt 0.626532 0.883926
vt 0.448588 0.701567
vt 0.619401 0.575122
vt 0.068479 0.185988
vt 0.284423 0.325649
vt 0.041496 0.290837
vt 0.533547 0.361999
vt 0.448284 0.168502
vt 0.582045 0.064543
vt 0.414200 0.522964
vt 0.414200 0.653750
vt 0.378472 0.601196
vt 0.260532 1.000000
vt 0.308123 0.778109
vt 0.366463 0.769361
vt 0.185865 0.963440
vt 0.033118 0.893269
vt 0.270301 0.000000
vt 0.320571 0.197117
vt 0.070969 0.093696
vt 0.011350 0.387067
vt 0.527088 0.933612
vt 0.443486 0.867891
vt 0.166380 0.646664
vt 0.209099 0.545762
vt 1.000000 0.560795
vt 1.000000 0.750404
vt 0.845350 0.695756
vt 0.872018 0.023368
vt 0.887195 0.076571
vt 0.837076 0.071409
vt 0.674449 0.476339
vt 0.806780 0.476339
vt 0.822412 0.513025
vt 0.845350 0.546977
vt 0.845350 0.884339
vt 0.703834 0.592809
vt 0.000000 0.693760
vt 0.038146 0.687836
vt 0.024878 0.889904
vt 0.887195 0.413558
vt 0.782047 0.462154
vt 0.815159 0.154868
vt 0.444024 0.759421
vt 0.443486 0.256846
vt 0.378471 0.984125
vt 0.424353 0.030246
vt 0.443486 0.133863
vt 0.443486 0.464134
vt 0.270841 0.522964
vt 0.426183 0.409562
vt 0.000000 0.351268
vt 0.640608 0.933612
vt 0.378472 0.522964
vt 0.857143 0.562491
vt 0.966158 0.476339
vt 0.792986 0.026091
vt 0.787479 0.018351
vt 0.806645 0.933612
vt 0.019052 0.661587
vt 0.645796 0.000000
vt 0.771379 0.476339
vt 0.605451 0.454847
vn 0.0000 0.0000 -1.0000
vn -0.7854 0.6070 0.1216
vn -0.0000 0.0000 1.0000
vn -0.1311 -0.8688 0.4775
vn 0.7119 0.5248 0.4666
vn 1.0000 -0.0000 0.0000
vn -1.0000 0.0000 0.0000
vn 0.0804 0.9895 0.1202
vn -0.5001 0.3312 -0.8001
vn 0.7265 0.5220 -0.4469
vn -0.5923 0.5072 0.6261
vn -0.6253 -0.7803 -0.0127
vn 0.6444 -0.1310 -0.7534
vn -0.1791 -0.6548 -0.7342
vn 0.4846 -0.8642 -0.1352
vn 0.0000 -1.0000 0.0000
vn 0.0248 -0.5220 0.8526
s off
f 8/1/1 5/2/1 19/3/1
f 17/4/2 15/5/2 14/6/2
f 10/7/3 6/8/3 11/9/3
f 38/10/4 45/11/4 44/12/4
f 10/13/5 3/14/5 4/15/5
f 3/14/6 9/16/6 27/17/6
f 22/18/7 16/19/7 7/20/7
f 14/6/8 15/5/8 5/21/8
f 8/1/9 17/22/9 14/23/9
f 3/14/10 18/24/10 19/25/10
f 36/26/11 35/27/11 40/28/11
f 22/29/12 21/30/12 23/31/12
f 18/32/13 29/33/13 28/34/13
f 30/35/14 21/36/14 20/37/14
f 30/38/15 29/39/15 26/40/15
f 30/41/16 26/42/16 13/43/16
f 10/7/17 11/9/17 13/43/17
f 19/3/1 20/37/1 8/1/1
f 8/1/1 2/44/1 5/2/1
f 17/4/2 16/19/2 15/5/2
f 10/7/3 1/45/3 6/8/3
f 4/15/5 1/46/5 10/13/5
f 10/13/5 9/16/5 3/14/5
f 27/17/6 29/39/6 18/24/6
f 18/24/6 3/14/6 27/17/6
f 22/18/7 25/47/7 16/19/7
f 25/47/7 12/48/7 16/19/7
f 16/19/7 17/4/7 7/20/7
f 1/49/8 4/50/8 15/5/8
f 4/50/8 5/21/8 15/5/8
f 1/49/8 15/5/8 6/51/8
f 5/21/8 2/52/8 14/6/8
f 14/23/9 2/44/9 8/1/9
f 8/1/9 7/53/9 17/22/9
f 5/54/10 4/15/10 19/25/10
f 4/15/10 3/14/10 19/25/10
f 40/28/11 41/55/11 36/26/11
f 41/55/11 37/56/11 36/26/11
f 23/31/12 24/57/12 22/29/12
f 24/57/12 25/58/12 22/29/12
f 28/34/13 20/37/13 18/32/13
f 20/37/13 19/3/13 18/32/13
f 7/53/14 8/1/14 22/59/14
f 8/1/14 20/37/14 21/36/14
f 22/59/14 8/1/14 21/36/14
f 20/37/14 28/34/14 30/35/14
f 28/60/15 29/39/15 30/38/15
f 29/39/15 27/17/15 26/40/15
f 23/31/16 21/30/16 13/43/16
f 21/30/16 30/41/16 13/43/16
f 11/9/17 12/61/17 13/43/17
f 12/61/17 25/58/17 24/57/17
f 13/43/17 12/61/17 24/57/17
f 13/43/17 26/42/17 10/7/17
f 26/42/17 27/62/17 9/63/17
f 10/7/17 26/42/17 9/63/17
