# Blender v2.79 (sub 0) OBJ File: 'asteroid6.blend'
# www.blender.org
o Cube
v 0.598668 1.000000 0.332406
v -0.769322 1.000000 0.295804
v 0.581883 1.000000 -0.262571
v -0.718221 1.000000 -0.185493
v -0.842806 0.526906 -0.840664
v -0.798222 -1.000000 0.823029
v -1.000000 -0.648445 -0.408201
v -0.812738 -1.000000 0.685116
v 0.480781 0.350462 1.000000
v 1.000000 -0.388519 0.407853
v 0.828692 0.712582 0.635363
v 1.000000 0.483140 0.440534
v 0.447149 -0.624704 1.000000
v -0.856549 -0.673516 -1.000000
v -1.000000 -0.582071 -0.796637
v 0.800412 0.621009 -0.806294
v 0.817655 0.676958 -0.728962
v 1.000000 -0.308715 -0.378901
v 1.000000 0.461502 -0.150501
v -1.000000 0.167008 -0.751196
v -0.845405 0.520295 -0.841741
v -0.830457 -0.481626 -1.000000
v -0.858661 -0.660560 -1.000000
v -1.000000 -0.426320 -0.836812
v -0.998829 0.557406 0.746710
v -1.000000 -0.042943 0.773060
v -1.000000 0.554222 0.745439
v -0.648798 -0.763223 1.000000
v -0.814759 -0.860530 0.938004
v -0.598627 0.322494 1.000000
v -0.916040 -0.391482 0.890793
v -0.887892 0.424303 0.887127
v -0.655862 -1.000000 -0.122522
v -0.760974 -0.757594 -1.000000
v 0.605968 -1.000000 0.678880
v 0.683307 -0.924795 0.732022
v 0.797124 -0.803703 0.612832
v 0.575642 -1.000000 0.099239
v 0.735668 -0.803355 -0.568417
v 0.837478 -0.319213 -0.954535
v 0.870085 -0.508830 -0.895899
v 0.295565 -0.566079 -1.000000
v 0.101915 -0.713722 -1.000000
v 0.763581 -0.719465 -0.860513
vt 0.411593 0.815815
vt 0.664193 0.688027
vt 0.658632 0.842988
vt 0.028584 0.557047
vt 0.295455 0.517722
vt 0.298455 0.553308
vt 0.296291 0.460385
vt 0.316623 0.495755
vt 0.305060 0.517722
vt 0.894593 0.517716
vt 0.960770 0.561379
vt 0.771538 0.547802
vt 0.261174 0.345835
vt 0.154337 0.125170
vt 0.266087 0.120628
vt 0.040797 0.074652
vt 0.123592 0.000000
vt 0.385284 0.985876
vt 0.698044 0.985876
vt 0.709161 0.960701
vt 0.744064 0.838920
vt 0.748334 0.990789
vt 0.400943 0.457462
vt 0.382664 0.507524
vt 0.380250 0.507079
vt 0.543104 0.471644
vt 0.653848 0.098392
vt 0.717488 0.354800
vt 0.429247 0.473231
vt 0.398272 0.354813
vt 0.361917 0.060510
vt 0.480472 0.028256
vt 0.884301 0.000000
vt 0.955265 0.073441
vt 0.748678 0.086999
vt 0.542132 0.070591
vt 0.634275 0.057482
vt 0.361917 0.571351
vt 0.383582 0.535362
vt 0.439064 0.507524
vt 0.973649 0.027898
vt 1.000000 0.026585
vt 0.929093 0.354415
vt 0.290430 0.997136
vt 0.270009 0.762068
vt 0.334386 0.847885
vt 0.718432 0.561817
vt 0.737849 0.537870
vt 0.126085 1.000000
vt 0.361204 0.173538
vt 0.112261 0.323814
vt 0.071595 0.460283
vt 0.025892 0.089559
vt 0.000000 0.331022
vt 0.962915 0.990789
vt 0.785100 0.984035
vt 0.403787 0.690109
vt 0.035355 0.706659
vt 0.194798 0.517722
vt 0.782562 0.507524
vt 0.236470 0.000487
vt 0.299009 0.067494
vt 0.701632 0.965817
vt 0.717997 0.786489
vt 0.654493 0.098176
vt 0.729068 0.230371
vt 0.610414 0.507479
vt 0.609113 0.507524
vt 0.365573 0.024905
vt 0.394544 0.000000
vt 0.729068 0.007566
vt 0.644421 0.513407
vt 0.709161 0.610329
vt 1.000000 0.379623
vt 0.985791 0.402018
vt 0.743540 0.363663
vt 0.334759 0.950549
vt 0.308233 1.000000
vt 0.735367 0.538229
vt 0.000000 0.964773
vt 0.005182 0.886315
vt 0.361917 0.426695
vt 0.016815 0.437137
vt 0.012049 0.379023
vt 0.961991 0.562169
vn 0.0000 1.0000 -0.0000
vn 0.0000 -1.0000 0.0000
vn 0.7097 -0.7036 -0.0371
vn -0.6714 0.1058 -0.7335
vn 1.0000 0.0000 0.0000
vn 0.7919 0.6102 -0.0223
vn -0.0344 0.8133 -0.5808
vn 0.1971 -0.2585 -0.9457
vn -0.8374 -0.1365 -0.5293
vn -0.9207 0.3778 -0.0978
vn -1.0000 0.0000 -0.0000
vn -0.9744 -0.2001 0.1026
vn -0.3584 0.0166 0.9334
vn -0.7706 0.0294 0.6367
vn -0.0186 0.7182 0.6955
vn 0.0794 -0.6285 0.7738
vn -0.0000 0.0000 1.0000
vn -0.6551 -0.7447 -0.1273
vn 0.0000 0.0000 -1.0000
vn 0.0489 -0.9612 -0.2714
vn 0.7357 -0.0254 0.6768
vn 0.8883 -0.4569 -0.0463
vn 0.9589 0.0807 -0.2722
vn 0.0117 0.1562 -0.9877
s off
f 4/1/1 1/2/1 3/3/1
f 35/4/2 6/5/2 8/6/2
f 37/7/3 36/8/3 35/9/3
f 20/10/4 21/11/4 22/12/4
f 10/13/5 19/14/5 12/15/5
f 19/14/6 17/16/6 3/17/6
f 5/18/7 3/3/7 16/19/7
f 44/20/8 42/21/8 41/22/8
f 15/23/9 23/24/9 14/25/9
f 20/26/10 27/27/10 4/28/10
f 24/29/11 15/23/11 7/30/11
f 7/30/12 8/31/12 31/32/12
f 31/33/13 28/34/13 30/35/13
f 26/36/14 31/32/14 32/37/14
f 25/38/15 32/39/15 30/40/15
f 28/34/16 29/41/16 6/42/16
f 13/43/17 30/35/17 28/34/17
f 34/44/18 33/45/18 7/46/18
f 22/12/19 34/47/19 23/48/19
f 33/45/20 34/44/20 43/49/20
f 10/13/21 12/15/21 9/50/21
f 18/51/22 10/13/22 39/52/22
f 16/53/23 18/51/23 40/54/23
f 16/55/24 40/56/24 42/21/24
f 4/1/1 2/57/1 1/2/1
f 33/45/2 38/58/2 8/6/2
f 38/58/2 35/4/2 8/6/2
f 35/9/3 38/59/3 37/7/3
f 38/59/3 39/52/3 37/7/3
f 23/48/4 24/60/4 22/12/4
f 24/60/4 20/10/4 22/12/4
f 10/13/5 18/51/5 19/14/5
f 3/17/6 1/61/6 19/14/6
f 1/61/6 11/62/6 12/15/6
f 19/14/6 1/61/6 12/15/6
f 4/1/7 3/3/7 5/18/7
f 3/3/7 17/63/7 16/19/7
f 43/64/8 42/21/8 44/20/8
f 42/21/8 40/56/8 41/22/8
f 15/23/9 24/29/9 23/24/9
f 27/27/10 25/65/10 2/66/10
f 2/66/10 4/28/10 27/27/10
f 4/28/10 5/67/10 20/26/10
f 5/67/10 21/68/10 20/26/10
f 7/30/11 26/36/11 20/26/11
f 26/36/11 27/27/11 20/26/11
f 20/26/11 24/29/11 7/30/11
f 6/69/12 29/70/12 8/31/12
f 29/70/12 31/32/12 8/31/12
f 31/32/12 26/36/12 7/30/12
f 30/35/13 32/71/13 31/33/13
f 31/33/13 29/41/13 28/34/13
f 25/65/14 27/27/14 32/37/14
f 27/27/14 26/36/14 32/37/14
f 30/40/15 9/72/15 1/2/15
f 9/72/15 11/73/15 1/2/15
f 1/2/15 2/57/15 30/40/15
f 2/57/15 25/38/15 30/40/15
f 6/42/16 35/74/16 28/34/16
f 35/74/16 36/75/16 13/43/16
f 28/34/16 35/74/16 13/43/16
f 13/43/17 9/76/17 30/35/17
f 33/45/18 8/6/18 7/46/18
f 7/46/18 15/77/18 34/44/18
f 15/77/18 14/78/18 34/44/18
f 22/12/19 42/21/19 43/64/19
f 43/64/19 34/47/19 22/12/19
f 34/47/19 14/79/19 23/48/19
f 43/49/20 44/80/20 39/81/20
f 39/81/20 38/58/20 43/49/20
f 38/58/20 33/45/20 43/49/20
f 12/15/21 11/62/21 9/50/21
f 9/50/21 13/82/21 10/13/21
f 13/82/21 36/8/21 37/7/21
f 10/13/21 13/82/21 37/7/21
f 37/7/22 39/52/22 10/13/22
f 39/52/22 44/83/22 41/84/22
f 18/51/22 39/52/22 41/84/22
f 16/53/23 17/16/23 19/14/23
f 19/14/23 18/51/23 16/53/23
f 18/51/23 41/84/23 40/54/23
f 42/21/24 22/12/24 21/11/24
f 21/11/24 5/85/24 42/21/24
f 5/85/24 16/55/24 42/21/24
