# Blender v2.79 (sub 0) OBJ File: 'asteroid5.blend'
# www.blender.org
o Cube
v 1.000000 -0.502487 -1.000000
v 1.000000 0.038489 -1.000000
v -1.000000 0.494094 -1.000000
v 0.012818 0.350082 -1.000000
v -0.270160 -0.769322 -1.000000
v 0.435382 -1.000000 -0.625868
v -0.137496 -0.915102 1.000000
v 0.163816 -1.000000 0.903201
v -0.642009 -0.658210 -1.000000
v -1.000000 0.173412 -1.000000
v -0.866495 -0.328527 -1.000000
v -1.000000 0.497876 -0.998176
v -0.902746 0.713142 -0.887685
v -0.472470 1.000000 -0.282485
v -0.578363 1.000000 0.240879
v -0.882746 0.777963 -0.753648
v 1.000000 -0.711043 -0.794066
v 1.000000 -1.000000 0.739936
v 0.882652 -1.000000 -0.533087
v 1.000000 0.341169 -0.923880
v 0.966220 0.394701 -0.913099
v 0.741341 0.747981 -0.758136
v 0.571559 1.000000 -0.245725
v 0.652734 0.835111 0.703267
v 0.559797 1.000000 0.259347
v -0.525918 -0.203170 1.000000
v -0.464595 -0.817362 1.000000
v -0.718640 -0.725538 0.700139
v -0.955476 -0.351868 0.455810
v -1.000000 -0.176342 0.422748
v -1.000000 0.781823 0.539895
v -0.965126 0.861381 0.592327
v -0.959984 0.864229 0.598971
v -0.840502 0.812766 0.738989
v 1.000000 -1.000000 0.758934
v 0.758208 -0.742465 1.000000
v 0.961487 -1.000000 0.799110
v 0.898388 0.439212 0.802520
v 1.000000 0.280664 0.703395
v 0.739785 -0.299316 1.000000
vt 0.905750 0.103008
vt 0.722251 0.008462
vt 0.974398 0.008355
vt 0.284640 0.561300
vt 0.171973 0.507521
vt 0.321020 0.501797
vt 0.854440 0.500295
vt 0.912683 0.502437
vt 0.879234 0.753439
vt 0.543007 0.995091
vt 0.603445 0.995939
vt 0.602734 0.996378
vt 0.657918 0.937723
vt 0.645116 0.970562
vt 0.807138 0.122185
vt 0.896805 0.384914
vt 0.802624 0.381042
vt 0.697037 0.000000
vt 0.333790 0.071682
vt 0.047502 0.000000
vt 0.285586 0.000742
vt 0.378218 0.447620
vt 0.474919 0.404170
vt 0.383600 0.500295
vt 0.043957 0.000004
vt 0.054322 0.318998
vt 0.000079 0.176775
vt 0.956545 0.940622
vt 0.884170 0.992100
vt 0.815534 0.996944
vt 0.975600 0.009791
vt 1.000000 0.039880
vt 0.670333 0.566938
vt 0.677963 0.600448
vt 0.661916 0.614302
vt 0.451138 0.994801
vt 0.483033 0.639611
vt 0.392453 0.996378
vt 0.451001 0.631253
vt 0.584931 0.000000
vt 0.647987 0.000844
vt 0.697037 0.076314
vt 0.049595 0.709019
vt 0.056004 0.556659
vt 0.116200 0.528818
vt 0.055830 0.460028
vt 0.036257 0.359365
vt 0.321020 0.857795
vt 0.278738 0.961498
vt 0.526872 0.023373
vt 0.372223 0.063531
vt 0.372223 0.258346
vt 0.717280 0.993330
vt 0.677963 0.675564
vt 0.700821 0.583799
vt 0.762315 0.530155
vt 0.677346 0.602023
vt 0.703526 0.409518
vt 0.392410 0.380776
vt 0.611026 0.499335
vt 0.000000 0.066234
vt 0.036623 0.000335
vt 0.956545 0.529621
vt 0.913448 0.502487
vt 0.873745 1.000000
vt 0.977263 0.409518
vt 0.485873 0.501968
vt 0.385161 0.572007
vt 0.372223 0.500295
vt 0.682708 0.500295
vt 0.284830 0.670938
vt 0.358017 0.333756
vt 0.356150 0.347377
vt 0.328190 0.437297
vt 0.233285 0.501601
vt 0.139075 0.501797
vt 0.000000 0.971760
vt 0.372246 0.058797
vt 0.379407 0.048812
vt 0.372223 0.123592
vn -0.4008 0.9126 -0.0811
vn 0.1074 -0.5574 0.8233
vn 0.0000 0.0000 -1.0000
vn -1.0000 0.0000 0.0000
vn -0.8917 0.4450 -0.0822
vn 0.0000 1.0000 -0.0000
vn 0.0154 0.8992 -0.4372
vn 0.8952 -0.4381 -0.0825
vn 0.1460 -0.6951 -0.7039
vn 0.7216 0.0300 0.6917
vn 0.0617 0.4336 -0.8990
vn 0.0768 0.2432 -0.9669
vn -0.0057 0.9370 0.3492
vn -0.7722 -0.0771 0.6306
vn -0.9645 -0.2565 -0.0631
vn -0.8251 -0.5618 -0.0594
vn -0.2859 -0.9569 -0.0508
vn -0.0000 -0.0000 1.0000
vn 0.8473 0.5307 0.0197
vn 0.0193 0.2544 0.9669
vn 0.0000 -1.0000 0.0000
vn 1.0000 -0.0000 0.0000
vn 0.0616 0.4336 -0.8990
s off
f 15/1/1 16/2/1 32/3/1
f 36/4/2 8/5/2 37/6/2
f 10/7/3 3/8/3 4/9/3
f 10/10/4 12/11/4 3/12/4
f 16/13/5 13/14/5 12/11/5
f 14/15/6 25/16/6 23/17/6
f 13/18/7 16/2/7 14/15/7
f 17/19/8 18/20/8 19/21/8
f 17/22/9 6/23/9 1/24/9
f 35/25/10 39/26/10 40/27/10
f 22/28/11 21/29/11 4/9/11
f 21/29/12 2/30/12 4/9/12
f 15/1/13 33/31/13 34/32/13
f 34/33/14 33/34/14 31/35/14
f 11/36/15 30/37/15 10/10/15
f 9/38/16 29/39/16 11/36/16
f 7/40/17 27/41/17 28/42/17
f 26/43/18 27/44/18 7/45/18
f 24/46/19 38/47/19 39/26/19
f 26/43/20 38/48/20 24/49/20
f 8/50/21 6/23/21 18/51/21
f 17/19/22 2/52/22 39/26/22
f 32/3/1 33/31/1 15/1/1
f 15/1/1 14/15/1 16/2/1
f 36/4/2 7/45/2 8/5/2
f 4/9/3 2/30/3 1/53/3
f 1/53/3 5/54/3 4/9/3
f 5/54/3 9/55/3 11/56/3
f 4/9/3 5/54/3 11/56/3
f 11/56/3 10/7/3 4/9/3
f 10/10/4 30/37/4 12/11/4
f 30/37/4 31/35/4 12/11/4
f 12/11/5 31/35/5 16/13/5
f 31/35/5 32/57/5 16/13/5
f 14/15/6 15/1/6 25/16/6
f 14/15/7 23/17/7 22/58/7
f 22/58/7 13/18/7 14/15/7
f 19/59/9 6/23/9 17/22/9
f 6/23/9 5/60/9 1/24/9
f 38/47/10 40/27/10 39/26/10
f 40/27/10 36/61/10 35/25/10
f 36/61/10 37/62/10 35/25/10
f 4/9/11 3/8/11 13/63/11
f 3/8/23 12/64/23 13/63/23
f 13/63/11 22/28/11 4/9/11
f 21/29/12 20/65/12 2/30/12
f 34/32/13 24/66/13 15/1/13
f 24/66/13 25/16/13 15/1/13
f 33/34/14 32/57/14 31/35/14
f 31/35/14 30/37/14 34/33/14
f 30/37/14 29/39/14 26/67/14
f 29/39/14 28/68/14 26/67/14
f 28/68/14 27/69/14 26/67/14
f 26/67/14 34/33/14 30/37/14
f 11/36/15 29/39/15 30/37/15
f 9/38/16 28/68/16 29/39/16
f 28/42/17 9/70/17 5/60/17
f 5/60/17 6/23/17 28/42/17
f 6/23/17 8/50/17 28/42/17
f 8/50/17 7/40/17 28/42/17
f 7/45/18 36/4/18 40/71/18
f 40/71/18 26/43/18 7/45/18
f 20/72/19 21/73/19 39/26/19
f 21/73/19 22/74/19 23/75/19
f 39/26/19 21/73/19 23/75/19
f 23/75/19 25/76/19 39/26/19
f 25/76/19 24/46/19 39/26/19
f 24/49/20 34/77/20 26/43/20
f 26/43/20 40/71/20 38/48/20
f 19/59/21 18/51/21 6/23/21
f 18/51/21 35/78/21 37/79/21
f 8/50/21 18/51/21 37/79/21
f 17/19/22 1/80/22 2/52/22
f 2/52/22 20/72/22 39/26/22
f 39/26/22 35/25/22 18/20/22
f 18/20/22 17/19/22 39/26/22
